# xmcd CD database file generated by LOLA_Freedb v0.9beta0
# 
# Track frame offsets:
#      150
#      12664
#      24185
#      36474
#      54653
#      65023
#      79447
#      91987
#      103455
#      114044
#      122902
#      134648
#      147438
#      160165
# 
# Disc length: 2302 seconds
# 
# Revision: 0 
# Processed by: cddbd v1.5.2PL0 Copyright (c) Steve Scherf et al.
# Submitted via: LOLA_Freedb v0.9beta0
# 
DISCID=cd08fc0e
DTITLE=Ray Sanders - Texas Dance Hall Style
DYEAR=2008
DGENRE=
TTITLE0=Ray Sanders - Shuffle Me Back To Texas
TTITLE1=Ray Sanders - Another Place, Another Time
TTITLE2=Ray Sanders - Don't You Believe Her
TTITLE3=Ray Sanders - Rock And A Hard Place
TTITLE4=Ray Sanders - One More Memory
TTITLE5=Ray Sanders - My Special Angel
TTITLE6=Ray Sanders - Had To Let Her Dance
TTITLE7=Ray Sanders - Most Wanted Woman
TTITLE8=Ray Sanders - Lonely Eyes
TTITLE9=Ray Sanders - Hangin' Around
TTITLE10=Ray Sanders - Can't Change The Changes
TTITLE11=Ray Sanders - Beer Drinkin' Music
TTITLE12=Ray Sanders - Single Mom
TTITLE13=Ray Sanders - She Still Lights A Candle
EXTD=
EXTT0=
EXTT1=
EXTT2=
EXTT3=
EXTT4=
EXTT5=
EXTT6=
EXTT7=
EXTT8=
EXTT9=
EXTT10=
EXTT11=
EXTT12=
EXTT13=
PLAYORDER=
